<svg xmlns="http://www.w3.org/2000/svg" xmlns:xlink="http://www.w3.org/1999/xlink" width="500" zoomAndPan="magnify" viewBox="0 0 375 374.999991" height="500" preserveAspectRatio="xMidYMid meet" version="1.0"><defs><g/><clipPath id="8b5883bc94"><path d="M 242 157 L 273 157 L 273 188 L 242 188 Z M 242 157 " clip-rule="nonzero"/></clipPath><clipPath id="8c2d6ca961"><path d="M 249.554688 153.75 L 279.289062 161.996094 L 272.046875 188.117188 L 242.3125 179.871094 Z M 249.554688 153.75 " clip-rule="nonzero"/></clipPath><clipPath id="eeba11e15f"><path d="M 264.996094 158.589844 L 272.15625 186.796875 C 272.234375 187.097656 272.144531 187.414062 271.921875 187.632812 C 271.699219 187.847656 271.378906 187.933594 271.082031 187.847656 L 243.277344 180.140625 C 242.980469 180.054688 242.746094 179.820312 242.667969 179.519531 C 242.589844 179.21875 242.675781 178.902344 242.898438 178.683594 L 263.5625 158.195312 C 263.78125 157.976562 264.097656 157.894531 264.394531 157.976562 C 264.691406 158.058594 264.921875 158.292969 264.996094 158.589844 Z M 264.996094 158.589844 " clip-rule="nonzero"/></clipPath><clipPath id="7023d282ba"><path d="M 276 160 L 318 160 L 318 201 L 276 201 Z M 276 160 " clip-rule="nonzero"/></clipPath><clipPath id="79725abaa1"><path d="M 270.222656 163.757812 L 311.816406 157.132812 L 317.636719 193.671875 L 276.042969 200.296875 Z M 270.222656 163.757812 " clip-rule="nonzero"/></clipPath><clipPath id="00fbf878e1"><path d="M 291.84375 160.886719 L 317.195312 192.421875 C 317.390625 192.664062 317.441406 192.992188 317.328125 193.28125 C 317.21875 193.570312 316.960938 193.78125 316.652344 193.828125 L 277.023438 200.140625 C 276.71875 200.1875 276.410156 200.070312 276.214844 199.828125 C 276.015625 199.589844 275.964844 199.261719 276.074219 198.972656 L 290.375 161.121094 C 290.484375 160.832031 290.738281 160.625 291.039062 160.578125 C 291.34375 160.527344 291.652344 160.644531 291.84375 160.886719 Z M 291.84375 160.886719 " clip-rule="nonzero"/></clipPath><clipPath id="2677d4810f"><path d="M 274 125 L 307 125 L 307 163 L 274 163 Z M 274 125 " clip-rule="nonzero"/></clipPath><clipPath id="09b452260e"><path d="M 291.855469 171.320312 L 258.886719 153.523438 L 274.457031 124.679688 L 307.425781 142.472656 Z M 291.855469 171.320312 " clip-rule="nonzero"/></clipPath><clipPath id="1edbdbcd56"><path d="M 274.960938 161.613281 L 274.097656 125.964844 C 274.089844 125.652344 274.246094 125.363281 274.511719 125.199219 C 274.777344 125.039062 275.105469 125.03125 275.378906 125.175781 L 306.5 141.972656 C 306.773438 142.121094 306.945312 142.402344 306.957031 142.710938 C 306.964844 143.023438 306.808594 143.3125 306.546875 143.476562 L 276.269531 162.320312 C 276.007812 162.484375 275.679688 162.496094 275.410156 162.347656 C 275.140625 162.203125 274.96875 161.921875 274.960938 161.613281 Z M 274.960938 161.613281 " clip-rule="nonzero"/></clipPath></defs><g fill="#91aa9d" fill-opacity="1"><g transform="translate(70.914121, 216.024977)"><g><path d="M 20.5 -6.34375 C 21.03125 -5.976562 21.296875 -5.5 21.296875 -4.90625 C 21.296875 -4.4375 21.125 -4.046875 20.78125 -3.734375 C 20.445312 -3.429688 20.054688 -3.28125 19.609375 -3.28125 C 19.328125 -3.28125 19.078125 -3.347656 18.859375 -3.484375 L 2.515625 -13.3125 C 1.929688 -13.644531 1.640625 -14.132812 1.640625 -14.78125 C 1.640625 -15.3125 1.929688 -15.800781 2.515625 -16.25 L 18.859375 -26.078125 C 19.140625 -26.222656 19.421875 -26.296875 19.703125 -26.296875 C 20.148438 -26.296875 20.523438 -26.15625 20.828125 -25.875 C 21.140625 -25.59375 21.296875 -25.226562 21.296875 -24.78125 C 21.296875 -24.132812 21.03125 -23.644531 20.5 -23.3125 L 6.265625 -14.828125 Z M 20.5 -6.34375 "/></g></g></g><g fill="#91aa9d" fill-opacity="1"><g transform="translate(93.888123, 216.024977)"><g><path d="M 6.046875 0 C 5.484375 0 5.035156 -0.144531 4.703125 -0.4375 C 4.367188 -0.726562 4.203125 -1.128906 4.203125 -1.640625 L 4.203125 -31.15625 C 4.203125 -31.632812 4.351562 -32.023438 4.65625 -32.328125 C 4.96875 -32.640625 5.363281 -32.796875 5.84375 -32.796875 L 16.046875 -32.796875 C 17.722656 -32.796875 19.238281 -32.4375 20.59375 -31.71875 C 21.957031 -31.007812 23.035156 -30.023438 23.828125 -28.765625 C 24.628906 -27.503906 25.03125 -26.09375 25.03125 -24.53125 C 25.03125 -23.039062 24.628906 -21.707031 23.828125 -20.53125 C 23.035156 -19.363281 21.96875 -18.457031 20.625 -17.8125 C 22.550781 -17.28125 24.070312 -16.320312 25.1875 -14.9375 C 26.3125 -13.550781 26.875 -11.804688 26.875 -9.703125 C 26.875 -7.828125 26.441406 -6.15625 25.578125 -4.6875 C 24.710938 -3.21875 23.515625 -2.066406 21.984375 -1.234375 C 20.460938 -0.410156 18.722656 0 16.765625 0 Z M 16.046875 -19.109375 C 17.753906 -19.109375 19.144531 -19.59375 20.21875 -20.5625 C 21.300781 -21.53125 21.84375 -22.851562 21.84375 -24.53125 C 21.84375 -26.15625 21.304688 -27.414062 20.234375 -28.3125 C 19.171875 -29.207031 17.773438 -29.65625 16.046875 -29.65625 L 7.46875 -29.65625 L 7.46875 -19.109375 Z M 16.765625 -3.15625 C 18.804688 -3.15625 20.460938 -3.75 21.734375 -4.9375 C 23.003906 -6.125 23.640625 -7.710938 23.640625 -9.703125 C 23.640625 -11.609375 23.003906 -13.125 21.734375 -14.25 C 20.460938 -15.382812 18.804688 -15.953125 16.765625 -15.953125 L 7.46875 -15.953125 L 7.46875 -3.15625 Z M 16.765625 -3.15625 "/></g></g></g><g fill="#91aa9d" fill-opacity="1"><g transform="translate(123.078119, 216.024977)"><g><path d="M 6.09375 0 C 5.613281 0 5.21875 -0.148438 4.90625 -0.453125 C 4.601562 -0.765625 4.453125 -1.160156 4.453125 -1.640625 L 4.453125 -21.34375 C 4.453125 -21.8125 4.601562 -22.195312 4.90625 -22.5 C 5.21875 -22.8125 5.613281 -22.96875 6.09375 -22.96875 C 6.5625 -22.96875 6.941406 -22.8125 7.234375 -22.5 C 7.535156 -22.195312 7.6875 -21.8125 7.6875 -21.34375 L 7.6875 -1.640625 C 7.6875 -1.160156 7.535156 -0.765625 7.234375 -0.453125 C 6.941406 -0.148438 6.5625 0 6.09375 0 Z M 6.046875 -27.34375 C 5.410156 -27.34375 4.875 -27.566406 4.4375 -28.015625 C 4 -28.460938 3.78125 -29.007812 3.78125 -29.65625 C 3.78125 -30.320312 4.003906 -30.863281 4.453125 -31.28125 C 4.898438 -31.707031 5.445312 -31.921875 6.09375 -31.921875 C 6.707031 -31.921875 7.238281 -31.707031 7.6875 -31.28125 C 8.132812 -30.863281 8.359375 -30.320312 8.359375 -29.65625 C 8.359375 -29.007812 8.132812 -28.460938 7.6875 -28.015625 C 7.238281 -27.566406 6.691406 -27.34375 6.046875 -27.34375 Z M 6.046875 -27.34375 "/></g></g></g><g fill="#91aa9d" fill-opacity="1"><g transform="translate(135.216123, 216.024977)"><g><path d="M 14.234375 -23.1875 C 16.472656 -23.1875 18.472656 -22.6875 20.234375 -21.6875 C 22.003906 -20.695312 23.390625 -19.3125 24.390625 -17.53125 C 25.398438 -15.757812 25.90625 -13.738281 25.90625 -11.46875 L 25.90625 -2.890625 C 25.90625 -0.648438 25.410156 1.375 24.421875 3.1875 C 23.429688 5.007812 22.050781 6.445312 20.28125 7.5 C 18.519531 8.550781 16.535156 9.078125 14.328125 9.078125 C 12.171875 9.078125 10.25 8.671875 8.5625 7.859375 C 6.882812 7.046875 5.472656 5.910156 4.328125 4.453125 C 4.078125 4.171875 3.953125 3.847656 3.953125 3.484375 C 3.953125 3.066406 4.144531 2.703125 4.53125 2.390625 C 4.8125 2.191406 5.117188 2.09375 5.453125 2.09375 C 5.710938 2.09375 5.96875 2.15625 6.21875 2.28125 C 6.46875 2.414062 6.660156 2.578125 6.796875 2.765625 C 7.640625 3.835938 8.703125 4.664062 9.984375 5.25 C 11.273438 5.832031 12.734375 6.125 14.359375 6.125 C 15.929688 6.125 17.351562 5.738281 18.625 4.96875 C 19.894531 4.207031 20.894531 3.128906 21.625 1.734375 C 22.351562 0.347656 22.71875 -1.238281 22.71875 -3.03125 L 22.71875 -4.90625 C 21.882812 -3.3125 20.695312 -2.0625 19.15625 -1.15625 C 17.613281 -0.25 15.863281 0.203125 13.90625 0.203125 C 11.71875 0.203125 9.757812 -0.289062 8.03125 -1.28125 C 6.3125 -2.269531 4.96875 -3.65625 4 -5.4375 C 3.039062 -7.21875 2.5625 -9.226562 2.5625 -11.46875 C 2.5625 -13.738281 3.066406 -15.757812 4.078125 -17.53125 C 5.085938 -19.3125 6.476562 -20.695312 8.25 -21.6875 C 10.03125 -22.6875 12.023438 -23.1875 14.234375 -23.1875 Z M 14.234375 -2.734375 C 15.859375 -2.734375 17.3125 -3.101562 18.59375 -3.84375 C 19.882812 -4.582031 20.894531 -5.617188 21.625 -6.953125 C 22.351562 -8.285156 22.71875 -9.789062 22.71875 -11.46875 C 22.71875 -13.144531 22.351562 -14.644531 21.625 -15.96875 C 20.894531 -17.300781 19.882812 -18.347656 18.59375 -19.109375 C 17.3125 -19.867188 15.859375 -20.25 14.234375 -20.25 C 12.585938 -20.25 11.117188 -19.867188 9.828125 -19.109375 C 8.535156 -18.347656 7.523438 -17.300781 6.796875 -15.96875 C 6.078125 -14.644531 5.71875 -13.144531 5.71875 -11.46875 C 5.71875 -9.789062 6.078125 -8.285156 6.796875 -6.953125 C 7.523438 -5.617188 8.535156 -4.582031 9.828125 -3.84375 C 11.117188 -3.101562 12.585938 -2.734375 14.234375 -2.734375 Z M 14.234375 -2.734375 "/></g></g><g transform="translate(163.650121, 216.024977)"><g><path d="M 27.796875 -32.796875 C 28.242188 -32.796875 28.601562 -32.65625 28.875 -32.375 C 29.144531 -32.101562 29.28125 -31.753906 29.28125 -31.328125 C 29.28125 -31.046875 29.207031 -30.738281 29.0625 -30.40625 L 16.546875 -1.046875 C 16.242188 -0.347656 15.753906 0 15.078125 0 C 14.710938 0 14.410156 -0.078125 14.171875 -0.234375 C 13.929688 -0.390625 13.726562 -0.660156 13.5625 -1.046875 L 1.09375 -30.234375 C 0.925781 -30.660156 0.84375 -31.023438 0.84375 -31.328125 C 0.84375 -31.773438 0.988281 -32.128906 1.28125 -32.390625 C 1.570312 -32.660156 1.957031 -32.796875 2.4375 -32.796875 C 3.164062 -32.796875 3.671875 -32.445312 3.953125 -31.75 L 15.078125 -5.125 L 26.171875 -31.671875 C 26.335938 -32.085938 26.546875 -32.378906 26.796875 -32.546875 C 27.046875 -32.710938 27.378906 -32.796875 27.796875 -32.796875 Z M 27.796875 -32.796875 "/></g></g></g><g fill="#91aa9d" fill-opacity="1"><g transform="translate(193.722116, 216.024977)"><g><path d="M 13.5625 -23.1875 C 15.632812 -23.1875 17.46875 -22.703125 19.0625 -21.734375 C 20.664062 -20.765625 21.90625 -19.425781 22.78125 -17.71875 C 23.664062 -16.007812 24.109375 -14.066406 24.109375 -11.890625 C 24.109375 -11.441406 23.96875 -11.082031 23.6875 -10.8125 C 23.40625 -10.550781 23.039062 -10.421875 22.59375 -10.421875 L 5.625 -10.421875 C 5.851562 -8.117188 6.75 -6.253906 8.3125 -4.828125 C 9.882812 -3.398438 11.847656 -2.6875 14.203125 -2.6875 C 15.203125 -2.6875 16.210938 -2.859375 17.234375 -3.203125 C 18.265625 -3.554688 19.085938 -4 19.703125 -4.53125 C 20.066406 -4.8125 20.441406 -4.953125 20.828125 -4.953125 C 21.140625 -4.953125 21.445312 -4.84375 21.75 -4.625 C 22.113281 -4.28125 22.296875 -3.898438 22.296875 -3.484375 C 22.296875 -3.117188 22.144531 -2.796875 21.84375 -2.515625 C 20.914062 -1.734375 19.738281 -1.082031 18.3125 -0.5625 C 16.882812 -0.0507812 15.515625 0.203125 14.203125 0.203125 C 11.960938 0.203125 9.957031 -0.289062 8.1875 -1.28125 C 6.425781 -2.269531 5.046875 -3.65625 4.046875 -5.4375 C 3.054688 -7.21875 2.5625 -9.226562 2.5625 -11.46875 C 2.5625 -13.738281 3.03125 -15.757812 3.96875 -17.53125 C 4.90625 -19.3125 6.207031 -20.695312 7.875 -21.6875 C 9.539062 -22.6875 11.4375 -23.1875 13.5625 -23.1875 Z M 13.5625 -20.28125 C 11.4375 -20.28125 9.671875 -19.625 8.265625 -18.3125 C 6.867188 -17 6.019531 -15.265625 5.71875 -13.109375 L 21.078125 -13.109375 C 20.859375 -15.265625 20.078125 -17 18.734375 -18.3125 C 17.390625 -19.625 15.664062 -20.28125 13.5625 -20.28125 Z M 13.5625 -20.28125 "/></g></g><g transform="translate(219.510114, 216.024977)"><g><path d="M 14.03125 0.203125 C 11.84375 0.203125 9.878906 -0.304688 8.140625 -1.328125 C 6.410156 -2.347656 5.046875 -3.742188 4.046875 -5.515625 C 3.054688 -7.296875 2.5625 -9.28125 2.5625 -11.46875 C 2.5625 -13.707031 3.035156 -15.710938 3.984375 -17.484375 C 4.941406 -19.265625 6.257812 -20.660156 7.9375 -21.671875 C 9.613281 -22.679688 11.503906 -23.1875 13.609375 -23.1875 C 17.109375 -23.1875 19.953125 -21.84375 22.140625 -19.15625 C 22.359375 -18.90625 22.46875 -18.609375 22.46875 -18.265625 C 22.46875 -17.816406 22.226562 -17.425781 21.75 -17.09375 C 21.5 -16.925781 21.234375 -16.84375 20.953125 -16.84375 C 20.535156 -16.84375 20.128906 -17.050781 19.734375 -17.46875 C 18.898438 -18.394531 17.976562 -19.085938 16.96875 -19.546875 C 15.957031 -20.015625 14.835938 -20.25 13.609375 -20.25 C 12.066406 -20.25 10.691406 -19.875 9.484375 -19.125 C 8.285156 -18.382812 7.359375 -17.34375 6.703125 -16 C 6.046875 -14.65625 5.71875 -13.144531 5.71875 -11.46875 C 5.71875 -9.8125 6.066406 -8.316406 6.765625 -6.984375 C 7.460938 -5.660156 8.441406 -4.617188 9.703125 -3.859375 C 10.960938 -3.109375 12.40625 -2.734375 14.03125 -2.734375 C 16.269531 -2.734375 18.078125 -3.332031 19.453125 -4.53125 C 19.804688 -4.84375 20.179688 -5 20.578125 -5 C 20.910156 -5 21.21875 -4.882812 21.5 -4.65625 C 21.894531 -4.320312 22.09375 -3.945312 22.09375 -3.53125 C 22.09375 -3.164062 21.953125 -2.859375 21.671875 -2.609375 C 19.648438 -0.734375 17.101562 0.203125 14.03125 0.203125 Z M 14.03125 0.203125 "/></g></g></g><g fill="#91aa9d" fill-opacity="1"><g transform="translate(244.542109, 216.024977)"><g><path d="M 20.40625 -16.25 C 21 -15.800781 21.296875 -15.3125 21.296875 -14.78125 C 21.296875 -14.132812 21 -13.644531 20.40625 -13.3125 L 4.078125 -3.484375 C 3.878906 -3.347656 3.625 -3.28125 3.3125 -3.28125 C 2.863281 -3.28125 2.472656 -3.429688 2.140625 -3.734375 C 1.804688 -4.046875 1.640625 -4.4375 1.640625 -4.90625 C 1.640625 -5.5 1.90625 -5.976562 2.4375 -6.34375 L 16.671875 -14.828125 L 2.4375 -23.3125 C 1.90625 -23.644531 1.640625 -24.132812 1.640625 -24.78125 C 1.640625 -25.226562 1.789062 -25.59375 2.09375 -25.875 C 2.40625 -26.15625 2.785156 -26.296875 3.234375 -26.296875 C 3.515625 -26.296875 3.796875 -26.222656 4.078125 -26.078125 Z M 20.40625 -16.25 "/></g></g></g><g clip-path="url(#8b5883bc94)"><g clip-path="url(#8c2d6ca961)"><g clip-path="url(#eeba11e15f)"><path fill="#20b2ff" d="M 249.28125 152.882812 L 279.972656 161.394531 L 272.527344 188.25 L 241.832031 179.738281 Z M 249.28125 152.882812 " fill-opacity="1" fill-rule="nonzero"/></g></g></g><g clip-path="url(#7023d282ba)"><g clip-path="url(#79725abaa1)"><g clip-path="url(#00fbf878e1)"><path fill="#7ed958" d="M 269.609375 163.109375 L 312.199219 156.324219 L 318.132812 193.59375 L 275.542969 200.375 Z M 269.609375 163.109375 " fill-opacity="1" fill-rule="nonzero"/></g></g></g><g clip-path="url(#2677d4810f)"><g clip-path="url(#09b452260e)"><g clip-path="url(#1edbdbcd56)"><path fill="#fd7400" d="M 291.875 172.226562 L 258.117188 154.003906 L 274.058594 124.464844 L 307.820312 142.683594 Z M 291.875 172.226562 " fill-opacity="1" fill-rule="nonzero"/></g></g></g><g fill="#91aa9d" fill-opacity="1"><g transform="translate(148.998824, 243.97497)"><g><path d="M 2.21875 0 C 2.039062 0 1.890625 -0.0546875 1.765625 -0.171875 C 1.648438 -0.296875 1.59375 -0.445312 1.59375 -0.625 L 1.59375 -11.875 C 1.59375 -12.050781 1.648438 -12.195312 1.765625 -12.3125 C 1.890625 -12.4375 2.039062 -12.5 2.21875 -12.5 L 5.421875 -12.5 C 6.203125 -12.5 6.898438 -12.320312 7.515625 -11.96875 C 8.128906 -11.625 8.601562 -11.144531 8.9375 -10.53125 C 9.28125 -9.914062 9.453125 -9.21875 9.453125 -8.4375 C 9.453125 -7.65625 9.28125 -6.957031 8.9375 -6.34375 C 8.601562 -5.738281 8.128906 -5.265625 7.515625 -4.921875 C 6.898438 -4.585938 6.203125 -4.421875 5.421875 -4.421875 L 2.84375 -4.421875 L 2.84375 -0.625 C 2.84375 -0.445312 2.785156 -0.296875 2.671875 -0.171875 C 2.554688 -0.0546875 2.40625 0 2.21875 0 Z M 5.421875 -5.609375 C 5.960938 -5.609375 6.445312 -5.726562 6.875 -5.96875 C 7.300781 -6.21875 7.632812 -6.550781 7.875 -6.96875 C 8.113281 -7.394531 8.234375 -7.882812 8.234375 -8.4375 C 8.234375 -8.988281 8.113281 -9.476562 7.875 -9.90625 C 7.632812 -10.34375 7.300781 -10.679688 6.875 -10.921875 C 6.445312 -11.171875 5.960938 -11.296875 5.421875 -11.296875 L 2.84375 -11.296875 L 2.84375 -5.609375 Z M 5.421875 -5.609375 "/></g></g></g><g fill="#91aa9d" fill-opacity="1"><g transform="translate(158.788477, 243.97497)"><g><path d="M 5.421875 0.078125 C 4.578125 0.078125 3.816406 -0.113281 3.140625 -0.5 C 2.460938 -0.882812 1.929688 -1.414062 1.546875 -2.09375 C 1.160156 -2.769531 0.96875 -3.53125 0.96875 -4.375 C 0.96875 -5.207031 1.160156 -5.96875 1.546875 -6.65625 C 1.929688 -7.34375 2.460938 -7.875 3.140625 -8.25 C 3.816406 -8.632812 4.578125 -8.828125 5.421875 -8.828125 C 6.265625 -8.828125 7.019531 -8.632812 7.6875 -8.25 C 8.363281 -7.875 8.894531 -7.34375 9.28125 -6.65625 C 9.675781 -5.96875 9.875 -5.207031 9.875 -4.375 C 9.875 -3.53125 9.679688 -2.769531 9.296875 -2.09375 C 8.910156 -1.414062 8.378906 -0.882812 7.703125 -0.5 C 7.023438 -0.113281 6.265625 0.078125 5.421875 0.078125 Z M 5.421875 -1.046875 C 6.046875 -1.046875 6.601562 -1.1875 7.09375 -1.46875 C 7.582031 -1.757812 7.960938 -2.15625 8.234375 -2.65625 C 8.515625 -3.164062 8.65625 -3.738281 8.65625 -4.375 C 8.65625 -5.007812 8.515625 -5.578125 8.234375 -6.078125 C 7.960938 -6.585938 7.582031 -6.988281 7.09375 -7.28125 C 6.601562 -7.570312 6.046875 -7.71875 5.421875 -7.71875 C 4.816406 -7.71875 4.265625 -7.570312 3.765625 -7.28125 C 3.273438 -6.988281 2.882812 -6.585938 2.59375 -6.078125 C 2.3125 -5.578125 2.171875 -5.007812 2.171875 -4.375 C 2.171875 -3.738281 2.3125 -3.164062 2.59375 -2.65625 C 2.882812 -2.15625 3.273438 -1.757812 3.765625 -1.46875 C 4.265625 -1.1875 4.816406 -1.046875 5.421875 -1.046875 Z M 5.421875 -1.046875 "/></g></g></g><g fill="#91aa9d" fill-opacity="1"><g transform="translate(169.617872, 243.97497)"><g><path d="M 11.03125 -8.75 C 11.195312 -8.75 11.328125 -8.703125 11.421875 -8.609375 C 11.515625 -8.515625 11.5625 -8.382812 11.5625 -8.21875 C 11.5625 -8.09375 11.539062 -7.984375 11.5 -7.890625 L 9.015625 -0.40625 C 8.960938 -0.28125 8.882812 -0.179688 8.78125 -0.109375 C 8.6875 -0.0351562 8.570312 0 8.4375 0 C 8.289062 0 8.160156 -0.0351562 8.046875 -0.109375 C 7.941406 -0.179688 7.875 -0.28125 7.84375 -0.40625 L 5.921875 -6.765625 L 4 -0.40625 C 3.957031 -0.269531 3.878906 -0.164062 3.765625 -0.09375 C 3.660156 -0.03125 3.546875 0 3.421875 0 C 3.285156 0 3.164062 -0.0351562 3.0625 -0.109375 C 2.957031 -0.179688 2.878906 -0.28125 2.828125 -0.40625 L 0.34375 -7.890625 C 0.300781 -8.015625 0.28125 -8.125 0.28125 -8.21875 C 0.28125 -8.570312 0.453125 -8.75 0.796875 -8.75 C 1.097656 -8.75 1.300781 -8.59375 1.40625 -8.28125 L 3.453125 -2.046875 L 5.34375 -8.265625 C 5.382812 -8.421875 5.457031 -8.539062 5.5625 -8.625 C 5.664062 -8.707031 5.796875 -8.75 5.953125 -8.75 C 6.109375 -8.75 6.238281 -8.707031 6.34375 -8.625 C 6.445312 -8.539062 6.519531 -8.421875 6.5625 -8.265625 L 8.40625 -2.078125 L 10.4375 -8.28125 C 10.539062 -8.59375 10.738281 -8.75 11.03125 -8.75 Z M 11.03125 -8.75 "/></g></g></g><g fill="#91aa9d" fill-opacity="1"><g transform="translate(181.455033, 243.97497)"><g><path d="M 5.171875 -8.828125 C 5.960938 -8.828125 6.660156 -8.644531 7.265625 -8.28125 C 7.867188 -7.914062 8.335938 -7.40625 8.671875 -6.75 C 9.015625 -6.101562 9.1875 -5.363281 9.1875 -4.53125 C 9.1875 -4.351562 9.128906 -4.210938 9.015625 -4.109375 C 8.910156 -4.015625 8.773438 -3.96875 8.609375 -3.96875 L 2.140625 -3.96875 C 2.222656 -3.09375 2.5625 -2.382812 3.15625 -1.84375 C 3.757812 -1.300781 4.507812 -1.03125 5.40625 -1.03125 C 5.789062 -1.03125 6.175781 -1.09375 6.5625 -1.21875 C 6.957031 -1.351562 7.269531 -1.523438 7.5 -1.734375 C 7.644531 -1.835938 7.789062 -1.890625 7.9375 -1.890625 C 8.050781 -1.890625 8.164062 -1.847656 8.28125 -1.765625 C 8.425781 -1.628906 8.5 -1.484375 8.5 -1.328125 C 8.5 -1.191406 8.4375 -1.066406 8.3125 -0.953125 C 7.96875 -0.660156 7.519531 -0.414062 6.96875 -0.21875 C 6.425781 -0.0195312 5.90625 0.078125 5.40625 0.078125 C 4.550781 0.078125 3.785156 -0.109375 3.109375 -0.484375 C 2.441406 -0.867188 1.914062 -1.398438 1.53125 -2.078125 C 1.15625 -2.753906 0.96875 -3.519531 0.96875 -4.375 C 0.96875 -5.226562 1.144531 -5.992188 1.5 -6.671875 C 1.863281 -7.359375 2.363281 -7.890625 3 -8.265625 C 3.632812 -8.640625 4.359375 -8.828125 5.171875 -8.828125 Z M 5.171875 -7.734375 C 4.359375 -7.734375 3.6875 -7.476562 3.15625 -6.96875 C 2.625 -6.46875 2.296875 -5.804688 2.171875 -4.984375 L 8.03125 -4.984375 C 7.945312 -5.804688 7.648438 -6.46875 7.140625 -6.96875 C 6.628906 -7.476562 5.972656 -7.734375 5.171875 -7.734375 Z M 5.171875 -7.734375 "/></g></g></g><g fill="#91aa9d" fill-opacity="1"><g transform="translate(191.276673, 243.97497)"><g><path d="M 5.390625 -8.84375 C 5.835938 -8.84375 6.191406 -8.785156 6.453125 -8.671875 C 6.710938 -8.554688 6.84375 -8.390625 6.84375 -8.171875 C 6.84375 -8.109375 6.835938 -8.0625 6.828125 -8.03125 C 6.785156 -7.882812 6.71875 -7.78125 6.625 -7.71875 C 6.539062 -7.664062 6.414062 -7.640625 6.25 -7.640625 C 6.15625 -7.640625 5.992188 -7.65625 5.765625 -7.6875 C 5.671875 -7.695312 5.539062 -7.703125 5.375 -7.703125 C 4.570312 -7.703125 3.914062 -7.488281 3.40625 -7.0625 C 2.90625 -6.632812 2.65625 -6.078125 2.65625 -5.390625 L 2.65625 -0.609375 C 2.65625 -0.410156 2.601562 -0.257812 2.5 -0.15625 C 2.394531 -0.0507812 2.242188 0 2.046875 0 C 1.859375 0 1.707031 -0.0507812 1.59375 -0.15625 C 1.488281 -0.257812 1.4375 -0.410156 1.4375 -0.609375 L 1.4375 -8.140625 C 1.4375 -8.335938 1.488281 -8.488281 1.59375 -8.59375 C 1.707031 -8.695312 1.859375 -8.75 2.046875 -8.75 C 2.242188 -8.75 2.394531 -8.695312 2.5 -8.59375 C 2.601562 -8.488281 2.65625 -8.335938 2.65625 -8.140625 L 2.65625 -7.4375 C 2.96875 -7.882812 3.363281 -8.226562 3.84375 -8.46875 C 4.320312 -8.71875 4.835938 -8.84375 5.390625 -8.84375 Z M 5.390625 -8.84375 "/></g></g></g><g fill="#91aa9d" fill-opacity="1"><g transform="translate(198.602917, 243.97497)"><g><path d="M 2.3125 0 C 2.132812 0 1.988281 -0.0546875 1.875 -0.171875 C 1.757812 -0.296875 1.703125 -0.445312 1.703125 -0.625 L 1.703125 -8.125 C 1.703125 -8.3125 1.757812 -8.460938 1.875 -8.578125 C 1.988281 -8.691406 2.132812 -8.75 2.3125 -8.75 C 2.5 -8.75 2.644531 -8.691406 2.75 -8.578125 C 2.863281 -8.460938 2.921875 -8.3125 2.921875 -8.125 L 2.921875 -0.625 C 2.921875 -0.445312 2.863281 -0.296875 2.75 -0.171875 C 2.644531 -0.0546875 2.5 0 2.3125 0 Z M 2.296875 -10.421875 C 2.054688 -10.421875 1.851562 -10.503906 1.6875 -10.671875 C 1.519531 -10.835938 1.4375 -11.046875 1.4375 -11.296875 C 1.4375 -11.554688 1.519531 -11.765625 1.6875 -11.921875 C 1.863281 -12.078125 2.070312 -12.15625 2.3125 -12.15625 C 2.550781 -12.15625 2.753906 -12.078125 2.921875 -11.921875 C 3.097656 -11.765625 3.1875 -11.554688 3.1875 -11.296875 C 3.1875 -11.046875 3.097656 -10.835938 2.921875 -10.671875 C 2.753906 -10.503906 2.546875 -10.421875 2.296875 -10.421875 Z M 2.296875 -10.421875 "/></g></g></g><g fill="#91aa9d" fill-opacity="1"><g transform="translate(203.225803, 243.97497)"><g><path d="M 5.578125 -8.84375 C 6.335938 -8.84375 7.019531 -8.679688 7.625 -8.359375 C 8.226562 -8.046875 8.695312 -7.582031 9.03125 -6.96875 C 9.375 -6.351562 9.546875 -5.617188 9.546875 -4.765625 L 9.546875 -0.609375 C 9.546875 -0.441406 9.488281 -0.296875 9.375 -0.171875 C 9.257812 -0.0546875 9.113281 0 8.9375 0 C 8.757812 0 8.609375 -0.0546875 8.484375 -0.171875 C 8.367188 -0.296875 8.3125 -0.441406 8.3125 -0.609375 L 8.3125 -4.765625 C 8.3125 -5.710938 8.046875 -6.4375 7.515625 -6.9375 C 6.992188 -7.4375 6.304688 -7.6875 5.453125 -7.6875 C 4.929688 -7.6875 4.457031 -7.582031 4.03125 -7.375 C 3.613281 -7.175781 3.28125 -6.894531 3.03125 -6.53125 C 2.789062 -6.175781 2.671875 -5.78125 2.671875 -5.34375 L 2.671875 -0.609375 C 2.671875 -0.429688 2.613281 -0.285156 2.5 -0.171875 C 2.394531 -0.0546875 2.25 0 2.0625 0 C 1.882812 0 1.734375 -0.0546875 1.609375 -0.171875 C 1.492188 -0.285156 1.4375 -0.429688 1.4375 -0.609375 L 1.4375 -8.125 C 1.4375 -8.3125 1.492188 -8.460938 1.609375 -8.578125 C 1.734375 -8.691406 1.882812 -8.75 2.0625 -8.75 C 2.25 -8.75 2.394531 -8.691406 2.5 -8.578125 C 2.613281 -8.460938 2.671875 -8.3125 2.671875 -8.125 L 2.671875 -7.578125 C 3.023438 -7.972656 3.453125 -8.28125 3.953125 -8.5 C 4.453125 -8.726562 4.992188 -8.84375 5.578125 -8.84375 Z M 5.578125 -8.84375 "/></g></g></g><g fill="#91aa9d" fill-opacity="1"><g transform="translate(214.055197, 243.97497)"><g><path d="M 5.421875 -8.828125 C 6.273438 -8.828125 7.035156 -8.640625 7.703125 -8.265625 C 8.378906 -7.890625 8.910156 -7.359375 9.296875 -6.671875 C 9.679688 -5.992188 9.875 -5.226562 9.875 -4.375 L 9.875 -1.109375 C 9.875 -0.253906 9.679688 0.515625 9.296875 1.203125 C 8.921875 1.898438 8.394531 2.445312 7.71875 2.84375 C 7.050781 3.25 6.296875 3.453125 5.453125 3.453125 C 4.628906 3.453125 3.894531 3.296875 3.25 2.984375 C 2.613281 2.679688 2.078125 2.253906 1.640625 1.703125 C 1.546875 1.585938 1.5 1.460938 1.5 1.328125 C 1.5 1.171875 1.578125 1.03125 1.734375 0.90625 C 1.835938 0.832031 1.953125 0.796875 2.078125 0.796875 C 2.171875 0.796875 2.265625 0.816406 2.359375 0.859375 C 2.460938 0.910156 2.539062 0.976562 2.59375 1.0625 C 2.914062 1.457031 3.320312 1.769531 3.8125 2 C 4.300781 2.226562 4.851562 2.34375 5.46875 2.34375 C 6.070312 2.34375 6.613281 2.191406 7.09375 1.890625 C 7.582031 1.597656 7.960938 1.1875 8.234375 0.65625 C 8.515625 0.132812 8.65625 -0.46875 8.65625 -1.15625 L 8.65625 -1.875 C 8.332031 -1.257812 7.878906 -0.78125 7.296875 -0.4375 C 6.710938 -0.09375 6.046875 0.078125 5.296875 0.078125 C 4.460938 0.078125 3.71875 -0.109375 3.0625 -0.484375 C 2.40625 -0.867188 1.890625 -1.398438 1.515625 -2.078125 C 1.148438 -2.753906 0.96875 -3.519531 0.96875 -4.375 C 0.96875 -5.226562 1.160156 -5.992188 1.546875 -6.671875 C 1.929688 -7.359375 2.460938 -7.890625 3.140625 -8.265625 C 3.816406 -8.640625 4.578125 -8.828125 5.421875 -8.828125 Z M 5.421875 -1.046875 C 6.046875 -1.046875 6.601562 -1.1875 7.09375 -1.46875 C 7.582031 -1.75 7.960938 -2.140625 8.234375 -2.640625 C 8.515625 -3.148438 8.65625 -3.726562 8.65625 -4.375 C 8.65625 -5.007812 8.515625 -5.578125 8.234375 -6.078125 C 7.960938 -6.585938 7.582031 -6.988281 7.09375 -7.28125 C 6.601562 -7.570312 6.046875 -7.71875 5.421875 -7.71875 C 4.796875 -7.71875 4.238281 -7.570312 3.75 -7.28125 C 3.257812 -6.988281 2.875 -6.585938 2.59375 -6.078125 C 2.3125 -5.578125 2.171875 -5.007812 2.171875 -4.375 C 2.171875 -3.726562 2.3125 -3.148438 2.59375 -2.640625 C 2.875 -2.140625 3.257812 -1.75 3.75 -1.46875 C 4.238281 -1.1875 4.796875 -1.046875 5.421875 -1.046875 Z M 5.421875 -1.046875 "/></g></g></g><g fill="#91aa9d" fill-opacity="1"><g transform="translate(224.884592, 243.97497)"><g/></g></g><g fill="#91aa9d" fill-opacity="1"><g transform="translate(229.571462, 243.97497)"><g><path d="M 2.21875 0 C 2.050781 0 1.90625 -0.0625 1.78125 -0.1875 C 1.65625 -0.3125 1.59375 -0.457031 1.59375 -0.625 L 1.59375 -11.875 C 1.59375 -12.050781 1.65625 -12.195312 1.78125 -12.3125 C 1.90625 -12.4375 2.050781 -12.5 2.21875 -12.5 L 9.734375 -12.5 C 9.910156 -12.5 10.054688 -12.4375 10.171875 -12.3125 C 10.296875 -12.195312 10.359375 -12.054688 10.359375 -11.890625 C 10.359375 -11.710938 10.296875 -11.566406 10.171875 -11.453125 C 10.054688 -11.347656 9.910156 -11.296875 9.734375 -11.296875 L 2.84375 -11.296875 L 2.84375 -6.875 L 7.859375 -6.875 C 8.035156 -6.875 8.179688 -6.816406 8.296875 -6.703125 C 8.421875 -6.585938 8.484375 -6.441406 8.484375 -6.265625 C 8.484375 -6.097656 8.421875 -5.953125 8.296875 -5.828125 C 8.171875 -5.710938 8.023438 -5.65625 7.859375 -5.65625 L 2.84375 -5.65625 L 2.84375 -1.203125 L 9.734375 -1.203125 C 9.910156 -1.203125 10.054688 -1.144531 10.171875 -1.03125 C 10.296875 -0.914062 10.359375 -0.773438 10.359375 -0.609375 C 10.359375 -0.441406 10.296875 -0.296875 10.171875 -0.171875 C 10.054688 -0.0546875 9.910156 0 9.734375 0 Z M 2.21875 0 "/></g></g></g><g fill="#91aa9d" fill-opacity="1"><g transform="translate(240.640805, 243.97497)"><g><path d="M 5.421875 -8.828125 C 6.253906 -8.828125 7.007812 -8.628906 7.6875 -8.234375 C 8.363281 -7.847656 8.894531 -7.3125 9.28125 -6.625 C 9.675781 -5.945312 9.875 -5.195312 9.875 -4.375 L 9.875 -0.609375 C 9.875 -0.441406 9.8125 -0.296875 9.6875 -0.171875 C 9.570312 -0.0546875 9.425781 0 9.25 0 C 9.0625 0 8.910156 -0.0546875 8.796875 -0.171875 C 8.679688 -0.285156 8.625 -0.429688 8.625 -0.609375 L 8.625 -1.5625 C 8.25 -1.050781 7.773438 -0.648438 7.203125 -0.359375 C 6.628906 -0.0664062 5.992188 0.078125 5.296875 0.078125 C 4.484375 0.078125 3.75 -0.113281 3.09375 -0.5 C 2.4375 -0.894531 1.914062 -1.429688 1.53125 -2.109375 C 1.15625 -2.785156 0.96875 -3.539062 0.96875 -4.375 C 0.96875 -5.195312 1.160156 -5.945312 1.546875 -6.625 C 1.941406 -7.3125 2.476562 -7.847656 3.15625 -8.234375 C 3.832031 -8.628906 4.585938 -8.828125 5.421875 -8.828125 Z M 5.421875 -1.046875 C 6.035156 -1.046875 6.585938 -1.1875 7.078125 -1.46875 C 7.566406 -1.757812 7.953125 -2.15625 8.234375 -2.65625 C 8.515625 -3.164062 8.65625 -3.738281 8.65625 -4.375 C 8.65625 -5 8.515625 -5.5625 8.234375 -6.0625 C 7.953125 -6.570312 7.566406 -6.972656 7.078125 -7.265625 C 6.585938 -7.566406 6.035156 -7.71875 5.421875 -7.71875 C 4.816406 -7.71875 4.265625 -7.566406 3.765625 -7.265625 C 3.273438 -6.972656 2.882812 -6.570312 2.59375 -6.0625 C 2.3125 -5.5625 2.171875 -5 2.171875 -4.375 C 2.171875 -3.738281 2.3125 -3.164062 2.59375 -2.65625 C 2.882812 -2.15625 3.273438 -1.757812 3.765625 -1.46875 C 4.265625 -1.1875 4.816406 -1.046875 5.421875 -1.046875 Z M 5.421875 -1.046875 "/></g></g></g><g fill="#91aa9d" fill-opacity="1"><g transform="translate(251.4702, 243.97497)"><g><path d="M 4.5 0.078125 C 3.832031 0.078125 3.195312 -0.03125 2.59375 -0.25 C 1.988281 -0.476562 1.5 -0.796875 1.125 -1.203125 C 1.007812 -1.328125 0.953125 -1.445312 0.953125 -1.5625 C 0.953125 -1.75 1.039062 -1.910156 1.21875 -2.046875 C 1.34375 -2.140625 1.472656 -2.1875 1.609375 -2.1875 C 1.796875 -2.1875 1.953125 -2.113281 2.078125 -1.96875 C 2.335938 -1.664062 2.675781 -1.4375 3.09375 -1.28125 C 3.519531 -1.125 3.988281 -1.046875 4.5 -1.046875 C 5.238281 -1.046875 5.796875 -1.171875 6.171875 -1.421875 C 6.546875 -1.679688 6.738281 -2.019531 6.75 -2.4375 C 6.75 -2.820312 6.5625 -3.140625 6.1875 -3.390625 C 5.8125 -3.648438 5.222656 -3.84375 4.421875 -3.96875 C 3.367188 -4.132812 2.582031 -4.425781 2.0625 -4.84375 C 1.550781 -5.269531 1.296875 -5.785156 1.296875 -6.390625 C 1.296875 -7.160156 1.597656 -7.757812 2.203125 -8.1875 C 2.804688 -8.613281 3.5625 -8.828125 4.46875 -8.828125 C 5.164062 -8.828125 5.773438 -8.707031 6.296875 -8.46875 C 6.828125 -8.226562 7.25 -7.894531 7.5625 -7.46875 C 7.65625 -7.332031 7.703125 -7.210938 7.703125 -7.109375 C 7.703125 -6.921875 7.613281 -6.773438 7.4375 -6.671875 C 7.363281 -6.617188 7.265625 -6.59375 7.140625 -6.59375 C 6.910156 -6.59375 6.722656 -6.671875 6.578125 -6.828125 C 6.054688 -7.429688 5.34375 -7.734375 4.4375 -7.734375 C 3.84375 -7.734375 3.367188 -7.613281 3.015625 -7.375 C 2.671875 -7.132812 2.5 -6.832031 2.5 -6.46875 C 2.5 -6.082031 2.660156 -5.773438 2.984375 -5.546875 C 3.316406 -5.316406 3.90625 -5.128906 4.75 -4.984375 C 5.894531 -4.796875 6.710938 -4.484375 7.203125 -4.046875 C 7.691406 -3.617188 7.9375 -3.085938 7.9375 -2.453125 C 7.9375 -1.960938 7.789062 -1.523438 7.5 -1.140625 C 7.207031 -0.753906 6.796875 -0.453125 6.265625 -0.234375 C 5.742188 -0.0234375 5.15625 0.078125 4.5 0.078125 Z M 4.5 0.078125 "/></g></g></g><g fill="#91aa9d" fill-opacity="1"><g transform="translate(260.092132, 243.97497)"><g><path d="M 8.28125 -8.703125 C 8.53125 -8.609375 8.65625 -8.453125 8.65625 -8.234375 C 8.65625 -8.140625 8.632812 -8.046875 8.59375 -7.953125 L 3.40625 3.4375 C 3.3125 3.6875 3.15625 3.8125 2.9375 3.8125 C 2.832031 3.8125 2.738281 3.789062 2.65625 3.75 C 2.40625 3.644531 2.28125 3.484375 2.28125 3.265625 C 2.28125 3.171875 2.304688 3.070312 2.359375 2.96875 L 3.9375 -0.53125 L 3.9375 -0.546875 L 0.375 -7.9375 C 0.320312 -8.019531 0.296875 -8.113281 0.296875 -8.21875 C 0.296875 -8.445312 0.414062 -8.609375 0.65625 -8.703125 C 0.738281 -8.742188 0.832031 -8.765625 0.9375 -8.765625 C 1.164062 -8.765625 1.328125 -8.65625 1.421875 -8.4375 L 4.546875 -1.859375 L 7.515625 -8.421875 C 7.628906 -8.648438 7.789062 -8.765625 8 -8.765625 C 8.09375 -8.765625 8.1875 -8.742188 8.28125 -8.703125 Z M 8.28125 -8.703125 "/></g></g></g></svg>